<svg width="24" height="24" viewBox="0 0 24 24" fill="none" xmlns="http://www.w3.org/2000/svg">
<path d="M12 20.25H16.25C17.3109 20.25 18.3283 19.8286 19.0784 19.0784C19.8286 18.3283 20.25 17.3109 20.25 16.25V12M12 20.25H7.75C6.68913 20.25 5.67172 19.8286 4.92157 19.0784C4.17143 18.3283 3.75 17.3109 3.75 16.25V12M12 20.25V3.75M20.25 12V7.75C20.25 6.68913 19.8286 5.67172 19.0784 4.92157C18.3283 4.17143 17.3109 3.75 16.25 3.75H12M20.25 12H3.75M3.75 12V7.75C3.75 6.68913 4.17143 5.67172 4.92157 4.92157C5.67172 4.17143 6.68913 3.75 7.75 3.75H12" stroke="#FFFAE8" stroke-width="1.5" stroke-linecap="round" stroke-linejoin="round"/>
</svg>
