<svg width="32" height="32" viewBox="0 0 32 32" fill="none" xmlns="http://www.w3.org/2000/svg">
<rect x="0.5" y="0.5" width="31" height="31" rx="7.5" fill="#11100F"/>
<rect x="0.5" y="0.5" width="31" height="31" rx="7.5" stroke="#1A1A18"/>
<path d="M17.5668 7.91799C17.7484 7.73642 17.9639 7.59239 18.2011 7.49412C18.4383 7.39586 18.6926 7.34528 18.9493 7.34528C19.2061 7.34528 19.4603 7.39586 19.6975 7.49412C19.9348 7.59239 20.1503 7.73642 20.3318 7.91799L20.9558 8.54199L21.5798 7.91799C21.7604 7.73219 21.9761 7.58413 22.2145 7.48244C22.4528 7.38074 22.7089 7.32743 22.968 7.32561C23.2271 7.32379 23.484 7.37349 23.7237 7.47183C23.9634 7.57016 24.1812 7.71517 24.3644 7.89842C24.5476 8.08167 24.6925 8.2995 24.7908 8.53926C24.889 8.77902 24.9386 9.03591 24.9367 9.29501C24.9348 9.55411 24.8814 9.81024 24.7796 10.0485C24.6778 10.2868 24.5297 10.5025 24.3438 10.683L23.7208 11.307L23.7258 11.312L20.9618 14.077L20.9558 14.071L20.9498 14.077L18.1858 11.312L18.1908 11.307L17.5678 10.683C17.3863 10.5015 17.2422 10.2859 17.144 10.0487C17.0457 9.8115 16.9951 9.55725 16.9951 9.30049C16.9951 9.04373 17.0457 8.78949 17.144 8.55228C17.2422 8.31507 17.3863 8.09953 17.5678 7.91799H17.5668Z" stroke="#FFD13C" stroke-width="1.5" stroke-linejoin="round"/>
<path d="M7.40262 13.091C7.71401 13.4087 8.0853 13.6616 8.49503 13.8349C8.90475 14.0083 9.34478 14.0987 9.78966 14.101C10.2345 14.1032 10.6755 14.0172 11.0869 13.848C11.4984 13.6788 11.8722 13.4297 12.1868 13.1151C12.5014 12.8005 12.7505 12.4267 12.9197 12.0153C13.0889 11.6038 13.1749 11.1629 13.1726 10.718C13.1704 10.2731 13.08 9.8331 12.9066 9.42337C12.7332 9.01365 12.4804 8.64236 12.1626 8.33096M7.40262 13.091C7.08487 12.7796 6.83201 12.4083 6.65865 11.9986C6.48529 11.5888 6.39487 11.1488 6.39262 10.7039C6.39037 10.259 6.47634 9.81812 6.64556 9.40667C6.81477 8.99521 7.06387 8.62139 7.37846 8.3068C7.69304 7.99222 8.06687 7.74312 8.47832 7.5739C8.88978 7.40469 9.33069 7.31872 9.77558 7.32097C10.2205 7.32321 10.6605 7.41363 11.0702 7.58699C11.4799 7.76035 11.8512 8.01322 12.1626 8.33096M7.40262 13.091L12.1626 8.33096M6.41662 21.289H9.78262H13.1466M9.78162 17.923V21.289V24.655M17.1096 20.418C17.2817 19.7749 17.6407 19.1974 18.1411 18.7584C18.6415 18.3195 19.2608 18.0388 19.9208 17.9518C20.5807 17.8649 21.2516 17.9757 21.8486 18.2701C22.4456 18.5646 22.9419 19.0294 23.2746 19.606L23.4636 19.903M23.4636 19.903H23.7256V17.923M23.4636 19.903H21.7456M16.9936 24.655V22.675H17.2606M17.2606 22.675H18.9746M17.2606 22.675L17.4456 22.972C17.7787 23.5481 18.275 24.0125 18.8719 24.3067C19.4688 24.6008 20.1395 24.7114 20.7993 24.6245C21.459 24.5376 22.0782 24.2571 22.5786 23.8184C23.079 23.3798 23.4381 22.8027 23.6106 22.16" stroke="#FFD13C" stroke-width="1.5" stroke-linecap="round" stroke-linejoin="round"/>
</svg>
