<svg width="32" height="32" viewBox="0 0 32 32" fill="none" xmlns="http://www.w3.org/2000/svg">
<rect x="0.5" y="0.5" width="31" height="31" rx="7.5" fill="#11100F"/>
<rect x="0.5" y="0.5" width="31" height="31" rx="7.5" stroke="#1A1A18"/>
<path d="M24.25 14.9071V11.2721C24.25 10.4431 23.617 9.75109 22.797 9.62809C21.846 9.48609 20.617 9.25209 19.719 8.90609C18.812 8.55709 17.722 7.89909 16.957 7.40109C16.672 7.21642 16.3396 7.11816 16 7.11816C15.6604 7.11816 15.328 7.21642 15.043 7.40109C14.279 7.89909 13.188 8.55709 12.281 8.90609C11.382 9.25209 10.154 9.48609 9.203 9.62809C8.383 9.75109 7.75 10.4431 7.75 11.2721V14.9071C7.74987 16.7432 8.24879 18.5449 9.19343 20.1194C10.1381 21.6939 11.4929 22.982 13.113 23.8461L13.343 23.9691L15.305 24.9151C15.5218 25.0196 15.7593 25.0739 16 25.0739C16.2407 25.0739 16.4782 25.0196 16.695 24.9151L18.656 23.9691L18.886 23.8461C20.5063 22.9822 21.8613 21.6941 22.8061 20.1196C23.751 18.545 24.25 16.7433 24.25 14.9071Z" stroke="#FFD13C" stroke-width="1.5" stroke-linecap="round" stroke-linejoin="round"/>
</svg>
