<svg width="32" height="32" viewBox="0 0 32 32" fill="none" xmlns="http://www.w3.org/2000/svg">
<rect x="0.5" y="0.5" width="31" height="31" rx="7.5" fill="#11100F"/>
<rect x="0.5" y="0.5" width="31" height="31" rx="7.5" stroke="#1A1A18"/>
<path d="M15.2558 7.56704C15.5218 6.89204 16.4778 6.89204 16.7438 7.56704L18.7908 12.757C18.8309 12.8593 18.8917 12.9522 18.9692 13.03C19.0468 13.1078 19.1396 13.1687 19.2418 13.209L24.4328 15.256C25.1078 15.522 25.1078 16.478 24.4328 16.744L19.2428 18.791C19.1405 18.8312 19.0476 18.8919 18.9699 18.9695C18.8921 19.0471 18.8311 19.1399 18.7908 19.242L16.7438 24.433C16.4778 25.108 15.5218 25.108 15.2558 24.433L13.2088 19.243C13.1687 19.1408 13.1079 19.0479 13.0303 18.9701C12.9528 18.8923 12.86 18.8314 12.7578 18.791L7.5668 16.744C6.8918 16.478 6.8918 15.522 7.5668 15.256L12.7568 13.209C12.8591 13.1689 12.952 13.1082 13.0297 13.0306C13.1075 12.953 13.1685 12.8602 13.2088 12.758L15.2558 7.56704Z" stroke="#FFD13C" stroke-width="1.5" stroke-linecap="round" stroke-linejoin="round"/>
<path d="M9.25 8.5C9.66421 8.5 10 8.83579 10 9.25C10 9.66421 9.66421 10 9.25 10C8.83579 10 8.5 9.66421 8.5 9.25C8.5 8.83579 8.83579 8.5 9.25 8.5Z" fill="#FFD13C" stroke="#FFD13C"/>
<path d="M23 22.5C23.2761 22.5 23.5 22.7239 23.5 23C23.5 23.2761 23.2761 23.5 23 23.5C22.7239 23.5 22.5 23.2761 22.5 23C22.5 22.7239 22.7239 22.5 23 22.5Z" fill="#FFD13C" stroke="#FFD13C"/>
</svg>
