<svg width="24" height="24" viewBox="0 0 24 24" fill="none" xmlns="http://www.w3.org/2000/svg">
<path d="M13.322 7.209C13.322 7.958 13.085 8.651 12.682 9.218C12.3663 9.66607 11.9474 10.0317 11.4609 10.284C10.9743 10.5364 10.4341 10.6681 9.886 10.668C7.988 10.668 6.45 9.118 6.45 7.208C6.45 5.298 7.988 3.75 9.886 3.75C10.3388 3.75118 10.787 3.84162 11.2048 4.01615C11.6227 4.19068 12.002 4.44588 12.3211 4.76714C12.6403 5.08841 12.8929 5.46944 13.0647 5.88843C13.2364 6.30743 13.3238 6.75618 13.322 7.209ZM2.75 18.107C2.75 15.43 6.295 13.333 9.886 13.333C11.318 13.333 12.743 13.666 13.939 14.237C15.742 15.097 17.023 16.497 17.021 18.107V19.25C17.021 19.5152 16.9156 19.7696 16.7281 19.9571C16.5406 20.1446 16.2862 20.25 16.021 20.25H3.75C3.48478 20.25 3.23043 20.1446 3.04289 19.9571C2.85536 19.7696 2.75 19.5152 2.75 19.25V18.107Z" stroke="#CBCACA" stroke-width="1.5" stroke-linecap="round" stroke-linejoin="round"/>
<path d="M15.1719 3.75C15.6246 3.75131 16.0727 3.84185 16.4904 4.01644C16.9081 4.19103 17.2873 4.44625 17.6064 4.7675C17.9254 5.08875 18.1779 5.46973 18.3496 5.88866C18.5213 6.3076 18.6087 6.75626 18.6069 7.209C18.6069 7.958 18.3709 8.651 17.9679 9.218C17.6521 9.66607 17.2333 10.0317 16.7467 10.284C16.2601 10.5364 15.72 10.6681 15.1719 10.668M21.2499 20.25V17.61C21.2499 16.4493 20.5255 13.8856 17.9679 12.9943" stroke="#CBCACA" stroke-width="1.5" stroke-linecap="round" stroke-linejoin="round"/>
</svg>
