<svg width="24" height="24" viewBox="0 0 24 24" fill="none" xmlns="http://www.w3.org/2000/svg">
<path d="M14.75 20.5H4.75C4.21957 20.5 3.71086 20.2893 3.33579 19.9142C2.96071 19.5391 2.75 19.0304 2.75 18.5V7.5C2.75 6.96957 2.96071 6.46086 3.33579 6.08579C3.71086 5.71071 4.21957 5.5 4.75 5.5H8.288V4.5C8.288 4.23478 8.39336 3.98043 8.58089 3.79289C8.76843 3.60536 9.02278 3.5 9.288 3.5H13.25C13.6478 3.5 14.0294 3.65804 14.3107 3.93934C14.592 4.22064 14.75 4.60218 14.75 5V20.5ZM14.75 20.5H19.25C19.7804 20.5 20.2891 20.2893 20.6642 19.9142C21.0393 19.5391 21.25 19.0304 21.25 18.5V10.5C21.25 9.96957 21.0393 9.46086 20.6642 9.08579C20.2891 8.71071 19.7804 8.5 19.25 8.5H14.75V20.5ZM14.75 12.5H17.25M14.75 16.5H17.25" stroke="#CBCACA" stroke-width="1.5" stroke-linecap="round" stroke-linejoin="round"/>
<path d="M6.75 9C7.02614 9 7.25 9.22386 7.25 9.5C7.25 9.77614 7.02614 10 6.75 10C6.47386 10 6.25 9.77614 6.25 9.5C6.25 9.22386 6.47386 9 6.75 9Z" fill="#CBCACA" stroke="#CBCACA"/>
<path d="M6.75 12.5C7.02614 12.5 7.25 12.7239 7.25 13C7.25 13.2761 7.02614 13.5 6.75 13.5C6.47386 13.5 6.25 13.2761 6.25 13C6.25 12.7239 6.47386 12.5 6.75 12.5Z" fill="#CBCACA" stroke="#CBCACA"/>
<path d="M6.75 16C7.02614 16 7.25 16.2239 7.25 16.5C7.25 16.7761 7.02614 17 6.75 17C6.47386 17 6.25 16.7761 6.25 16.5C6.25 16.2239 6.47386 16 6.75 16Z" fill="#CBCACA" stroke="#CBCACA"/>
<path d="M10.75 9C11.0261 9 11.25 9.22386 11.25 9.5C11.25 9.77614 11.0261 10 10.75 10C10.4739 10 10.25 9.77614 10.25 9.5C10.25 9.22386 10.4739 9 10.75 9Z" fill="#CBCACA" stroke="#CBCACA"/>
<path d="M10.75 12.5C11.0261 12.5 11.25 12.7239 11.25 13C11.25 13.2761 11.0261 13.5 10.75 13.5C10.4739 13.5 10.25 13.2761 10.25 13C10.25 12.7239 10.4739 12.5 10.75 12.5Z" fill="#CBCACA" stroke="#CBCACA"/>
<path d="M10.75 16C11.0261 16 11.25 16.2239 11.25 16.5C11.25 16.7761 11.0261 17 10.75 17C10.4739 17 10.25 16.7761 10.25 16.5C10.25 16.2239 10.4739 16 10.75 16Z" fill="#CBCACA" stroke="#CBCACA"/>
</svg>
