<svg width="32" height="32" viewBox="0 0 32 32" fill="none" xmlns="http://www.w3.org/2000/svg">
<rect x="0.5" y="0.5" width="31" height="31" rx="7.5" fill="#11100F"/>
<rect x="0.5" y="0.5" width="31" height="31" rx="7.5" stroke="#1A1A18"/>
<path d="M22.268 15.0001C22.268 15.3001 22.478 15.5631 22.765 15.6501C23.5659 15.8958 24.2523 16.4204 24.6994 17.1289C25.1466 17.8374 25.325 18.6827 25.2022 19.5114C25.0794 20.3401 24.6635 21.0974 24.0301 21.6457C23.3968 22.1941 22.5878 22.4972 21.75 22.5001H11.375C11.315 22.5001 11.2557 22.4984 11.197 22.4951C11.1317 22.4984 11.066 22.5001 11 22.5001C9.87283 22.5001 8.79183 22.0523 7.9948 21.2553C7.19777 20.4582 6.75 19.3772 6.75 18.2501C6.75 17.1229 7.19777 16.0419 7.9948 15.2449C8.79183 14.4478 9.87283 14.0001 11 14.0001C11.0987 14.0001 11.1946 13.9673 11.2726 13.9068C11.3507 13.8463 11.4064 13.7617 11.431 13.6661C11.7556 12.3627 12.5459 11.2232 13.6528 10.4624C14.7598 9.70163 16.1069 9.37223 17.44 9.53633C18.7731 9.70043 20 10.3467 20.8895 11.3532C21.7789 12.3597 22.2692 13.6569 22.268 15.0001Z" stroke="#FFD13C" stroke-width="1.5" stroke-linecap="round" stroke-linejoin="round"/>
</svg>
