<svg width="32" height="32" viewBox="0 0 32 32" fill="none" xmlns="http://www.w3.org/2000/svg">
<rect x="0.5" y="0.5" width="31" height="31" rx="7.5" fill="#11100F"/>
<rect x="0.5" y="0.5" width="31" height="31" rx="7.5" stroke="#151513"/>
<path d="M15.9999 11.934L14.5429 10.477C14.119 10.0531 13.6157 9.71686 13.0617 9.48746C12.5078 9.25807 11.9141 9.14003 11.3146 9.14008C10.7151 9.14012 10.1214 9.25826 9.5675 9.48773C9.01362 9.71721 8.51035 10.0535 8.08645 10.4775C7.66254 10.9015 7.32629 11.4048 7.0969 11.9587C6.86751 12.5126 6.74947 13.1063 6.74951 13.7059C6.74956 14.3054 6.86769 14.8991 7.09717 15.453C7.32665 16.0068 7.66297 16.5101 8.08695 16.934L9.54395 18.39M15.9999 11.934L17.4569 10.477C18.3132 9.62089 19.4745 9.13998 20.6853 9.14008C21.8961 9.14017 23.0573 9.62126 23.9134 10.4775C24.7696 11.3338 25.2505 12.495 25.2504 13.7059C25.2503 14.9167 24.7692 16.0779 23.9129 16.934L22.4559 18.39L22.4689 18.403L16.0129 24.86L15.9999 24.847L15.9869 24.86L9.53095 18.403L9.54395 18.39M15.9999 11.934L9.54395 18.39" stroke="#FFD13C" stroke-width="1.5" stroke-linejoin="round"/>
</svg>
