<svg width="32" height="32" viewBox="0 0 32 32" fill="none" xmlns="http://www.w3.org/2000/svg">
<rect x="0.5" y="0.5" width="31" height="31" rx="7.5" fill="#11100F"/>
<rect x="0.5" y="0.5" width="31" height="31" rx="7.5" stroke="#151513"/>
<path d="M16.1665 13.005V6.75M16.1665 6.75C15.9035 6.75 15.6405 6.851 15.4395 7.051L13.1665 9.324M16.1665 6.75C16.4295 6.75 16.6935 6.851 16.8935 7.051L19.1665 9.324M19.1615 16H25.4165M25.4165 16C25.4165 15.737 25.3155 15.474 25.1155 15.273L22.8425 13M25.4165 16C25.4165 16.263 25.3155 16.527 25.1155 16.727L22.8425 19M16.1665 18.995V25.25M16.1665 25.25C15.9035 25.25 15.6405 25.149 15.4395 24.949L13.1665 22.676M16.1665 25.25C16.4295 25.25 16.6935 25.149 16.8935 24.949L19.1665 22.676M13.1715 16H6.9165M6.9165 16C6.9165 15.737 7.0175 15.474 7.2175 15.273L9.4905 13M6.9165 16C6.9165 16.263 7.0175 16.527 7.2175 16.727L9.4905 19" stroke="#FFD13C" stroke-width="1.5" stroke-linecap="round" stroke-linejoin="round"/>
</svg>
