<svg width="32" height="32" viewBox="0 0 32 32" fill="none" xmlns="http://www.w3.org/2000/svg">
<rect x="0.5" y="0.5" width="31" height="31" rx="7.5" fill="#11100F"/>
<rect x="0.5" y="0.5" width="31" height="31" rx="7.5" stroke="#1A1A18"/>
<path d="M8.1665 20.25V9.75C8.1665 8.95435 8.48257 8.19129 9.04518 7.62868C9.60779 7.06607 10.3709 6.75 11.1665 6.75H22.1665C22.4317 6.75 22.6861 6.85536 22.8736 7.04289C23.0611 7.23043 23.1665 7.48478 23.1665 7.75V20.25H11.0415M8.1665 20.245V22.625" stroke="#FFD13C" stroke-width="1.5" stroke-linecap="round" stroke-linejoin="round"/>
<path d="M22.1665 25.25H10.6665C10.0035 25.25 9.36758 24.9866 8.89874 24.5178C8.4299 24.0489 8.1665 23.413 8.1665 22.75C8.1665 22.087 8.4299 21.4511 8.89874 20.9822C9.36758 20.5134 10.0035 20.25 10.6665 20.25H23.1665V24.25C23.1665 24.5152 23.0611 24.7696 22.8736 24.9571C22.6861 25.1446 22.4317 25.25 22.1665 25.25Z" stroke="#FFD13C" stroke-width="1.5" stroke-linecap="round" stroke-linejoin="round"/>
<path d="M19.1665 6.75H13.1665V14.267C13.1665 14.3065 13.1782 14.3452 13.2001 14.378C13.222 14.4109 13.2531 14.4366 13.2896 14.4518C13.3261 14.467 13.3663 14.471 13.405 14.4634C13.4438 14.4558 13.4795 14.4369 13.5075 14.409L15.4595 12.457C15.647 12.2695 15.9013 12.1642 16.1665 12.1642C16.4317 12.1642 16.686 12.2695 16.8735 12.457L18.8255 14.409C18.8535 14.4369 18.8892 14.4558 18.928 14.4634C18.9667 14.471 19.0069 14.467 19.0434 14.4518C19.0799 14.4366 19.111 14.4109 19.1329 14.378C19.1549 14.3452 19.1665 14.3065 19.1665 14.267V6.75Z" stroke="#FFD13C" stroke-width="1.5" stroke-linejoin="round"/>
</svg>
