<svg width="120" height="30" viewBox="0 0 120 30" fill="none" xmlns="http://www.w3.org/2000/svg">
<g clip-path="url(#clip0_27_619)">
<path d="M48.9941 6.44067H45.437V26.0724H48.9941V6.44067Z" fill="#FFFAE8"/>
<path d="M13.3352 0.140076C20.5662 0.140076 26.4495 6.02314 26.4495 13.2541C26.4495 20.4851 20.5663 26.3685 13.3352 26.3685C10.9072 26.3685 8.53415 25.6912 6.48501 24.4361L4.83996 28.9687H1.28287L5.18104 18.2356H8.73581L7.65037 21.2254C9.30198 22.4031 11.2931 23.045 13.3352 23.045C18.7341 23.045 23.1261 18.6529 23.1261 13.2541C23.1261 7.85535 18.734 3.46325 13.3352 3.46325C7.93648 3.4633 3.54441 7.85537 3.54437 13.2541H0.221191C0.221231 6.02316 6.10428 0.140111 13.3352 0.140076Z" fill="#FFFAE8"/>
<path d="M62.7812 22.1695L56.0297 6.44067H52.3271L60.9204 26.0724H64.5514L73.1446 6.44067H69.6615L62.7812 22.1695Z" fill="#FFFAE8"/>
<path d="M31.0869 26.0724V6.62437H34.4627V11.9087L34.1334 10.587C34.6702 9.24147 35.5768 8.21562 36.8483 7.50469C38.1199 6.79614 39.6849 6.44067 41.5458 6.44067V9.8522C41.3978 9.82835 41.2571 9.81642 41.1235 9.81642H40.7394C38.8547 9.81642 37.3637 10.3794 36.2639 11.5031C35.1641 12.6291 34.613 14.2538 34.613 16.3842V26.0724H31.0893H31.0869Z" fill="#FFFAE8"/>
<path d="M74.8433 13.1826C74.8433 11.3122 75.182 9.55877 75.8572 7.92219C76.5323 6.288 77.4389 4.90669 78.5769 3.78303C79.7148 2.65698 81.0651 1.76951 82.6277 1.11821C84.1904 0.466922 85.8389 0.140076 87.5685 0.140076C89.2981 0.140076 90.9443 0.466922 92.5093 1.11821C94.0719 1.76951 95.4222 2.65937 96.5602 3.78303C97.6981 4.90907 98.6047 6.288 99.2798 7.92219C99.955 9.55639 100.294 11.3098 100.294 13.1826C100.294 15.0554 99.955 16.8494 99.2798 18.4956C98.6047 20.1417 97.6981 21.5397 96.5602 22.6896C95.4222 23.8395 94.0719 24.7388 92.5093 25.3901C90.9466 26.0414 89.2981 26.3683 87.5685 26.3683C85.8389 26.3683 84.1928 26.0414 82.6277 25.3901C81.0651 24.7388 79.7148 23.8395 78.5769 22.6896C77.4389 21.5397 76.5323 20.1441 75.8572 18.4956C75.182 16.8494 74.8433 15.0792 74.8433 13.1826ZM78.219 13.1826C78.219 16.0502 79.1256 18.4001 80.9387 20.2371C82.7518 22.0741 84.961 22.9902 87.5661 22.9902C90.1713 22.9902 92.3804 22.0717 94.1936 20.2371C96.0067 18.4001 96.9132 16.0502 96.9132 13.1826C96.9132 10.315 96.0067 8.04623 94.1936 6.23549C92.3804 4.42237 90.1713 3.51583 87.5661 3.51583C84.961 3.51583 82.7518 4.42237 80.9387 6.23549C79.1256 8.04861 78.219 10.3651 78.219 13.1826Z" fill="#FFFAE8"/>
<path d="M119.913 19.0466C119.913 21.084 119.107 22.7707 117.497 24.1114C115.884 25.4474 113.849 26.1178 111.382 26.1178H102.03V22.8494H111.382C112.876 22.8494 113.999 22.482 114.973 21.7472C115.944 21.0101 116.43 20.0892 116.43 18.9751C116.43 17.9778 115.97 17.1572 115.044 16.5035C114.121 15.8522 112.687 15.3369 110.745 14.9575C105.01 13.822 102.145 11.3218 102.145 7.45936C102.145 5.42198 102.913 3.7353 104.454 2.39455C105.995 1.05617 107.959 0.388184 110.349 0.388184H119.699V3.65655H110.349C108.954 3.65655 107.875 4.00727 106.976 4.70627C106.076 5.4029 105.626 6.31184 105.626 7.42596C105.626 8.44464 106.074 9.27248 106.976 9.91184C107.875 10.5512 109.321 11.0761 111.311 11.4769C114.107 12.047 116.239 12.9798 117.709 14.2848C119.176 15.5874 119.913 17.1763 119.913 19.0466Z" fill="#FFFAE8"/>
</g>
<defs>
<clipPath id="clip0_27_619">
<rect width="120" height="29.1054" fill="white"/>
</clipPath>
</defs>
</svg>
