<svg width="20" height="20" viewBox="0 0 20 20" fill="none" xmlns="http://www.w3.org/2000/svg">
<path d="M9.49996 1.49988C13.7641 1.49988 17.2334 4.96912 17.2334 9.23324C17.2334 13.4974 13.7641 16.9668 9.49996 16.9668C8.06812 16.9668 6.66875 16.5674 5.46038 15.8272L4.49029 18.5001H2.39267L4.69143 12.1708H6.78767L6.14759 13.9339C7.12154 14.6284 8.29569 15.0069 9.49996 15.0069C12.6836 15.0069 15.2736 12.4169 15.2736 9.23324C15.2736 6.04957 12.6836 3.45955 9.49996 3.45955C6.31631 3.45958 3.72631 6.04959 3.72628 9.23324H1.7666C1.76662 4.96913 5.23586 1.4999 9.49996 1.49988Z" fill="url(#paint0_linear_109_302)"/>
<defs>
<linearGradient id="paint0_linear_109_302" x1="16.3165" y1="2.3011" x2="9.50001" y2="18.5001" gradientUnits="userSpaceOnUse">
<stop stop-color="#FFD650"/>
<stop offset="1" stop-color="white" stop-opacity="0.6"/>
</linearGradient>
</defs>
</svg>
