<svg width="32" height="32" viewBox="0 0 32 32" fill="none" xmlns="http://www.w3.org/2000/svg">
<rect x="0.5" y="0.5" width="31" height="31" rx="7.5" fill="#11100F"/>
<rect x="0.5" y="0.5" width="31" height="31" rx="7.5" stroke="#1A1A18"/>
<path d="M11.877 11.75C12.1531 11.75 12.377 11.9739 12.377 12.25C12.377 12.5261 12.1531 12.75 11.877 12.75C11.6008 12.75 11.377 12.5261 11.377 12.25C11.377 11.9739 11.6008 11.75 11.877 11.75Z" fill="#FFD13C" stroke="#FFD13C"/>
<path d="M15.062 12.25H20.372" stroke="#FFD13C" stroke-width="1.5" stroke-linecap="round"/>
<path d="M11.877 15.5C12.1531 15.5 12.377 15.7239 12.377 16C12.377 16.2761 12.1531 16.5 11.877 16.5C11.6008 16.5 11.377 16.2761 11.377 16C11.377 15.7239 11.6008 15.5 11.877 15.5Z" fill="#FFD13C" stroke="#FFD13C"/>
<path d="M15.062 16H20.372" stroke="#FFD13C" stroke-width="1.5" stroke-linecap="round"/>
<path d="M11.877 19.25C12.1531 19.25 12.377 19.4739 12.377 19.75C12.377 20.0261 12.1531 20.25 11.877 20.25C11.6008 20.25 11.377 20.0261 11.377 19.75C11.377 19.4739 11.6008 19.25 11.877 19.25Z" fill="#FFD13C" stroke="#FFD13C"/>
<path d="M15.062 19.75H20.372" stroke="#FFD13C" stroke-width="1.5" stroke-linecap="round"/>
<path d="M20.25 7.75H11.75C9.54086 7.75 7.75 9.54086 7.75 11.75V20.25C7.75 22.4591 9.54086 24.25 11.75 24.25H20.25C22.4591 24.25 24.25 22.4591 24.25 20.25V11.75C24.25 9.54086 22.4591 7.75 20.25 7.75Z" stroke="#FFD13C" stroke-width="1.5"/>
</svg>
