<svg width="32" height="32" viewBox="0 0 32 32" fill="none" xmlns="http://www.w3.org/2000/svg">
<rect x="0.5" y="0.5" width="31" height="31" rx="7.5" fill="#11100F"/>
<rect x="0.5" y="0.5" width="31" height="31" rx="7.5" stroke="#1A1A18"/>
<path d="M14.371 8.25H12.25C10.9239 8.25 9.65215 8.77678 8.71447 9.71447C7.77678 10.6521 7.25 11.9239 7.25 13.25V19.75C7.25 21.0761 7.77678 22.3479 8.71447 23.2855C9.65215 24.2232 10.9239 24.75 12.25 24.75H18.75C20.0761 24.75 21.3479 24.2232 22.2855 23.2855C23.2232 22.3479 23.75 21.0761 23.75 19.75V17.629" stroke="#FFD13C" stroke-width="1.5" stroke-linecap="round" stroke-linejoin="round"/>
<path d="M16.299 18.75C16.5434 18.75 16.7854 18.7019 17.0112 18.6084C17.237 18.5149 17.4422 18.3778 17.615 18.205L24.205 11.615C24.3781 11.4422 24.5154 11.237 24.6091 11.0111C24.7028 10.7852 24.7511 10.543 24.7511 10.2985C24.7511 10.0539 24.7028 9.81174 24.6091 9.58584C24.5154 9.35993 24.3781 9.15473 24.205 8.98197L23.018 7.79497C22.8452 7.62186 22.64 7.48453 22.4141 7.39083C22.1882 7.29713 21.9461 7.2489 21.7015 7.2489C21.4569 7.2489 21.2148 7.29713 20.9889 7.39083C20.763 7.48453 20.5578 7.62186 20.385 7.79497L13.795 14.385C13.6222 14.5578 13.4851 14.7629 13.3915 14.9887C13.298 15.2145 13.2499 15.4566 13.25 15.701V18.75H16.299Z" stroke="#FFD13C" stroke-width="1.5" stroke-linecap="round" stroke-linejoin="round"/>
</svg>
