<svg width="32" height="32" viewBox="0 0 32 32" fill="none" xmlns="http://www.w3.org/2000/svg">
<rect x="0.5" y="0.5" width="31" height="31" rx="7.5" fill="#11100F"/>
<rect x="0.5" y="0.5" width="31" height="31" rx="7.5" stroke="#1A1A18"/>
<path d="M11.0499 10.4621C11.3221 10.5579 11.6117 10.5937 11.899 10.567C12.1863 10.5403 12.4644 10.4518 12.7142 10.3074C12.9641 10.1631 13.1798 9.9665 13.3464 9.73099C13.5131 9.49549 13.6269 9.22671 13.6799 8.9431L13.9999 7.2231C15.3157 6.92336 16.6821 6.92336 17.9979 7.2231L18.3199 8.9431C18.3729 9.22671 18.4867 9.49549 18.6534 9.73099C18.82 9.9665 19.0357 10.1631 19.2856 10.3074C19.5354 10.4518 19.8135 10.5403 20.1008 10.567C20.3881 10.5937 20.6777 10.5579 20.9499 10.4621L22.5989 9.8821C23.5168 10.8709 24.2007 12.0534 24.5999 13.3421L23.2699 14.4821C23.0509 14.6699 22.875 14.9028 22.7545 15.1649C22.6339 15.427 22.5715 15.7121 22.5715 16.0006C22.5715 16.2891 22.6339 16.5742 22.7545 16.8363C22.875 17.0984 23.0509 17.3313 23.2699 17.5191L24.5999 18.6581C24.2007 19.9468 23.5168 21.1293 22.5989 22.1181L20.9489 21.5381C20.6767 21.4423 20.3871 21.4065 20.0998 21.4332C19.8125 21.4599 19.5344 21.5484 19.2846 21.6927C19.0347 21.837 18.819 22.0337 18.6524 22.2692C18.4857 22.5047 18.3719 22.7735 18.3189 23.0571L17.9999 24.7771C16.6841 25.0768 15.3177 25.0768 14.0019 24.7771L13.6799 23.0571C13.6269 22.7735 13.5131 22.5047 13.3464 22.2692C13.1798 22.0337 12.9641 21.837 12.7142 21.6927C12.4644 21.5484 12.1863 21.4599 11.899 21.4332C11.6117 21.4065 11.3221 21.4423 11.0499 21.5381L9.4009 22.1181C8.483 21.1293 7.79913 19.9468 7.3999 18.6581L8.7299 17.5181C8.94878 17.3303 9.12446 17.0975 9.24491 16.8355C9.36536 16.5734 9.42772 16.2885 9.42772 16.0001C9.42772 15.7117 9.36536 15.4268 9.24491 15.1647C9.12446 14.9027 8.94878 14.6699 8.7299 14.4821L7.3999 13.3421C7.79884 12.0535 8.48236 10.871 9.3999 9.8821L11.0499 10.4621ZM15.9999 13.0001C16.7956 13.0001 17.5586 13.3162 18.1212 13.8788C18.6838 14.4414 18.9999 15.2044 18.9999 16.0001C18.9999 16.7957 18.6838 17.5588 18.1212 18.1214C17.5586 18.684 16.7956 19.0001 15.9999 19.0001C15.2043 19.0001 14.4412 18.684 13.8786 18.1214C13.316 17.5588 12.9999 16.7957 12.9999 16.0001C12.9999 15.2044 13.316 14.4414 13.8786 13.8788C14.4412 13.3162 15.2043 13.0001 15.9999 13.0001Z" stroke="#FFD13C" stroke-width="1.5" stroke-linecap="round" stroke-linejoin="round"/>
</svg>
